<svg xmlns="http://www.w3.org/2000/svg" viewBox="0 0 800 450" fill="none">
  <defs>
    <linearGradient id="ft-bg" x1="0" y1="0" x2="1" y2="1">
      <stop stop-color="#061829"/>
      <stop offset="1" stop-color="#0F3254"/>
    </linearGradient>
    <linearGradient id="ft-build" x1="0" y1="0" x2="0" y2="1">
      <stop stop-color="#143552"/>
      <stop offset="1" stop-color="#0A2540"/>
    </linearGradient>
    <linearGradient id="ft-fiber" x1="0" y1="0" x2="1" y2="0">
      <stop stop-color="#00D4FF" stop-opacity="0.2"/>
      <stop offset="0.5" stop-color="#6ECFFF"/>
      <stop offset="1" stop-color="#00D4FF" stop-opacity="0.25"/>
    </linearGradient>
    <radialGradient id="ft-win" cx="50%" cy="50%" r="50%">
      <stop stop-color="#6ECFFF" stop-opacity="0.9"/>
      <stop offset="1" stop-color="#00D4FF" stop-opacity="0.2"/>
    </radialGradient>
  </defs>
  <rect width="800" height="450" fill="url(#ft-bg)"/>
  <circle cx="680" cy="80" r="120" fill="#00D4FF" opacity="0.06"/>
  <!-- buildings -->
  <g>
    <rect x="80" y="120" width="120" height="260" rx="6" fill="url(#ft-build)" stroke="#1e4a6f" stroke-width="1"/>
    <rect x="220" y="90" width="140" height="290" rx="6" fill="url(#ft-build)" stroke="#1e4a6f" stroke-width="1"/>
    <rect x="380" y="140" width="110" height="240" rx="6" fill="url(#ft-build)" stroke="#1e4a6f" stroke-width="1"/>
    <rect x="510" y="100" width="130" height="280" rx="6" fill="url(#ft-build)" stroke="#1e4a6f" stroke-width="1"/>
    <rect x="660" y="160" width="100" height="220" rx="6" fill="url(#ft-build)" stroke="#1e4a6f" stroke-width="1"/>
  </g>
  <!-- windows -->
  <g opacity="0.75">
    <g fill="#6ECFFF">
      <rect x="98" y="145" width="18" height="14" rx="2" opacity="0.35"/><rect x="128" y="145" width="18" height="14" rx="2" opacity="0.55"/>
      <rect x="158" y="145" width="18" height="14" rx="2" opacity="0.4"/>
      <rect x="98" y="175" width="18" height="14" rx="2" opacity="0.5"/><rect x="128" y="175" width="18" height="14" rx="2" opacity="0.7"/>
      <rect x="158" y="175" width="18" height="14" rx="2" opacity="0.45"/>
      <rect x="98" y="205" width="18" height="14" rx="2" opacity="0.3"/><rect x="128" y="205" width="18" height="14" rx="2" opacity="0.6"/>
      <rect x="158" y="205" width="18" height="14" rx="2" opacity="0.5"/>
      <rect x="98" y="235" width="18" height="14" rx="2" opacity="0.55"/><rect x="128" y="235" width="18" height="14" rx="2" opacity="0.35"/>
      <rect x="158" y="235" width="18" height="14" rx="2" opacity="0.65"/>
      <rect x="98" y="265" width="18" height="14" rx="2" opacity="0.4"/><rect x="128" y="265" width="18" height="14" rx="2" opacity="0.5"/>
      <rect x="158" y="265" width="18" height="14" rx="2" opacity="0.35"/>
      <rect x="98" y="295" width="18" height="14" rx="2" opacity="0.6"/><rect x="128" y="295" width="18" height="14" rx="2" opacity="0.45"/>
      <rect x="158" y="295" width="18" height="14" rx="2" opacity="0.55"/>
    </g>
    <g fill="#6ECFFF">
      <rect x="245" y="115" width="20" height="16" rx="2" opacity="0.5"/><rect x="280" y="115" width="20" height="16" rx="2" opacity="0.7"/><rect x="315" y="115" width="20" height="16" rx="2" opacity="0.4"/>
      <rect x="245" y="150" width="20" height="16" rx="2" opacity="0.6"/><rect x="280" y="150" width="20" height="16" rx="2" opacity="0.45"/><rect x="315" y="150" width="20" height="16" rx="2" opacity="0.65"/>
      <rect x="245" y="185" width="20" height="16" rx="2" opacity="0.35"/><rect x="280" y="185" width="20" height="16" rx="2" opacity="0.55"/><rect x="315" y="185" width="20" height="16" rx="2" opacity="0.5"/>
      <rect x="245" y="220" width="20" height="16" rx="2" opacity="0.7"/><rect x="280" y="220" width="20" height="16" rx="2" opacity="0.4"/><rect x="315" y="220" width="20" height="16" rx="2" opacity="0.6"/>
      <rect x="245" y="255" width="20" height="16" rx="2" opacity="0.45"/><rect x="280" y="255" width="20" height="16" rx="2" opacity="0.65"/><rect x="315" y="255" width="20" height="16" rx="2" opacity="0.35"/>
      <rect x="245" y="290" width="20" height="16" rx="2" opacity="0.55"/><rect x="280" y="290" width="20" height="16" rx="2" opacity="0.5"/><rect x="315" y="290" width="20" height="16" rx="2" opacity="0.7"/>
    </g>
    <g fill="#00D4FF">
      <rect x="400" y="165" width="18" height="14" rx="2" opacity="0.45"/><rect x="430" y="165" width="18" height="14" rx="2" opacity="0.6"/>
      <rect x="460" y="165" width="18" height="14" rx="2" opacity="0.4"/>
      <rect x="400" y="200" width="18" height="14" rx="2" opacity="0.55"/><rect x="430" y="200" width="18" height="14" rx="2" opacity="0.35"/>
      <rect x="460" y="200" width="18" height="14" rx="2" opacity="0.65"/>
      <rect x="400" y="235" width="18" height="14" rx="2" opacity="0.4"/><rect x="430" y="235" width="18" height="14" rx="2" opacity="0.7"/>
      <rect x="460" y="235" width="18" height="14" rx="2" opacity="0.5"/>
      <rect x="400" y="270" width="18" height="14" rx="2" opacity="0.6"/><rect x="430" y="270" width="18" height="14" rx="2" opacity="0.45"/>
      <rect x="460" y="270" width="18" height="14" rx="2" opacity="0.35"/>
      <rect x="400" y="305" width="18" height="14" rx="2" opacity="0.5"/><rect x="430" y="305" width="18" height="14" rx="2" opacity="0.55"/>
      <rect x="460" y="305" width="18" height="14" rx="2" opacity="0.65"/>
    </g>
  </g>
  <!-- fiber network -->
  <path d="M40 400 C160 370 280 410 400 380 C520 350 640 390 760 360" stroke="url(#ft-fiber)" stroke-width="3" fill="none" stroke-linecap="round"/>
  <path d="M140 400 V300 M290 400 V280 M435 400 V300 M575 400 V270 M710 400 V300" stroke="#00D4FF" stroke-width="2" opacity="0.45" stroke-linecap="round"/>
  <circle cx="140" cy="300" r="4" fill="#6ECFFF"/><circle cx="290" cy="280" r="4" fill="#6ECFFF"/>
  <circle cx="435" cy="300" r="4" fill="#6ECFFF"/><circle cx="575" cy="270" r="4" fill="#B8F0FF"/>
  <circle cx="710" cy="300" r="4" fill="#6ECFFF"/>
  <rect x="28" y="28" width="250" height="36" rx="18" fill="#00D4FF" fill-opacity="0.12" stroke="#6ECFFF" stroke-opacity="0.35"/>
  <text x="48" y="51" fill="#6ECFFF" font-family="system-ui,sans-serif" font-size="15" font-weight="600">FTTH · район · −18% стыков</text>
</svg>
